<svg width="24" height="24" viewBox="0 0 24 24" fill="none" xmlns="http://www.w3.org/2000/svg">
<rect width="24" height="24" fill="#E5E5E5"/>
<g id="Menu" clip-path="url(#clip0_37_94)" filter="url(#filter0_d_37_94)">
<rect width="428" height="2231" transform="translate(-48 -2102)" fill="white"/>
<g id="Group 28">
<g id="Frame 24">
<g id="mail_black_24dp 1" clip-path="url(#clip1_37_94)">
<path id="Vector" d="M22 6C22 4.9 21.1 4 20 4H4C2.9 4 2 4.9 2 6V18C2 19.1 2.9 20 4 20H20C21.1 20 22 19.1 22 18V6ZM20 6L12 10.99L4 6H20ZM20 18H4V8L12 13L20 8V18Z" fill="url(#paint0_linear_37_94)"/>
</g>
<rect x="-23.5" y="-9.5" width="379" height="43" rx="21.5" stroke="url(#paint1_linear_37_94)"/>
</g>
</g>
</g>
<defs>
<filter id="filter0_d_37_94" x="-112" y="-2166" width="572" height="2375" filterUnits="userSpaceOnUse" color-interpolation-filters="sRGB">
<feFlood flood-opacity="0" result="BackgroundImageFix"/>
<feColorMatrix in="SourceAlpha" type="matrix" values="0 0 0 0 0 0 0 0 0 0 0 0 0 0 0 0 0 0 127 0" result="hardAlpha"/>
<feMorphology radius="8" operator="dilate" in="SourceAlpha" result="effect1_dropShadow_37_94"/>
<feOffset dx="8" dy="8"/>
<feGaussianBlur stdDeviation="32"/>
<feComposite in2="hardAlpha" operator="out"/>
<feColorMatrix type="matrix" values="0 0 0 0 0 0 0 0 0 0 0 0 0 0 0 0 0 0 0.25 0"/>
<feBlend mode="normal" in2="BackgroundImageFix" result="effect1_dropShadow_37_94"/>
<feBlend mode="normal" in="SourceGraphic" in2="effect1_dropShadow_37_94" result="shape"/>
</filter>
<linearGradient id="paint0_linear_37_94" x1="10.3565" y1="2.07999" x2="38.9873" y2="6.8188" gradientUnits="userSpaceOnUse">
<stop stop-color="#002F52"/>
<stop offset="1" stop-color="#326589"/>
</linearGradient>
<linearGradient id="paint1_linear_37_94" x1="134.773" y1="-15.28" x2="376.956" y2="261.669" gradientUnits="userSpaceOnUse">
<stop stop-color="#002F52"/>
<stop offset="1" stop-color="#326589"/>
</linearGradient>
<clipPath id="clip0_37_94">
<rect width="428" height="2231" fill="white" transform="translate(-48 -2102)"/>
</clipPath>
<clipPath id="clip1_37_94">
<rect width="24" height="24" fill="white"/>
</clipPath>
</defs>
</svg>
